# xmcd
#
# Track frame offsets:
#	150
#	25100
#	45260
#	66245
#	86032
#	108815
#	131110
#	147040
#	162452
#	183470
#	200070
#	223175
#	247342
#	269635
#	290585
#
# Disc length: 4167 seconds
# Revision: 2
# Processed by: cddbd v1.5.2PL0 Copyright (c) Steve Scherf et al.
# Submitted via: dBpowerAMP V12.0
#
DISCID=ef10450f
DTITLE=Anson Funderburgh and The Rockets - Live at The Grand Emporium
DYEAR=1995
DGENRE=Blues
TTITLE0=Sidetracked
TTITLE1=Understand
TTITLE2=Ways of Man
TTITLE3=It's You
TTITLE4=Turning my Life Around
TTITLE5=Peace of Mind
TTITLE6=Empty Arms
TTITLE7=Wild Cherry
TTITLE8=Tell me What I Want to Hear
TTITLE9=The Drifter
TTITLE10=Everything's Gonna be Alright
TTITLE11=Shedding Tears of Laughter
TTITLE12=Trying to Make You Mine
TTITLE13=Make a Little Love Tonight
TTITLE14=Backstroke
EXTD=
EXTT0=
EXTT1=
EXTT2=
EXTT3=
EXTT4=
EXTT5=
EXTT6=
EXTT7=
EXTT8=
EXTT9=
EXTT10=
EXTT11=
EXTT12=
EXTT13=
EXTT14=
PLAYORDER=
